<mxfile host="app.diagrams.net" modified="2023-09-28T08:44:27.476Z" agent="Mozilla/5.0 (X11; Linux x86_64) AppleWebKit/537.36 (KHTML, like Gecko) Chrome/114.0.0.0 Safari/537.36" etag="GLNP63BkZeV41Y54d6K6" version="21.8.2" type="device">
  <diagram name="PÃ¡gina-1" id="b4wMb9o5UJWhEgCB0x2X">
    <mxGraphModel dx="666" dy="836" grid="1" gridSize="10" guides="1" tooltips="1" connect="1" arrows="1" fold="1" page="1" pageScale="1" pageWidth="827" pageHeight="1169" math="0" shadow="0">
      <root>
        <mxCell id="0" />
        <mxCell id="1" parent="0" />
        <mxCell id="8V_Fvuz6eneKWts8hAFH-17" style="edgeStyle=orthogonalEdgeStyle;rounded=0;orthogonalLoop=1;jettySize=auto;html=1;exitX=0.5;exitY=1;exitDx=0;exitDy=0;entryX=0.5;entryY=0;entryDx=0;entryDy=0;" edge="1" parent="1" source="8V_Fvuz6eneKWts8hAFH-1" target="8V_Fvuz6eneKWts8hAFH-16">
          <mxGeometry relative="1" as="geometry" />
        </mxCell>
        <mxCell id="8V_Fvuz6eneKWts8hAFH-1" value="INICIO" style="rounded=1;whiteSpace=wrap;html=1;" vertex="1" parent="1">
          <mxGeometry x="300" y="20" width="120" height="60" as="geometry" />
        </mxCell>
        <mxCell id="8V_Fvuz6eneKWts8hAFH-16" value="&lt;div&gt;:ESCRIBIR:Metros a Pies&amp;nbsp;&lt;/div&gt;&lt;div&gt;&amp;nbsp;2: Pies a Pulgadas&amp;nbsp;&lt;/div&gt;&lt;div&gt;&amp;nbsp;3: Metros a Pulgadas&amp;nbsp;&lt;/div&gt;" style="shape=parallelogram;perimeter=parallelogramPerimeter;whiteSpace=wrap;html=1;fixedSize=1;" vertex="1" parent="1">
          <mxGeometry x="300" y="120" width="120" height="60" as="geometry" />
        </mxCell>
        <mxCell id="8V_Fvuz6eneKWts8hAFH-18" value="LEER opcion" style="shape=parallelogram;perimeter=parallelogramPerimeter;whiteSpace=wrap;html=1;fixedSize=1;" vertex="1" parent="1">
          <mxGeometry x="300" y="230" width="120" height="60" as="geometry" />
        </mxCell>
        <mxCell id="8V_Fvuz6eneKWts8hAFH-32" style="edgeStyle=orthogonalEdgeStyle;rounded=0;orthogonalLoop=1;jettySize=auto;html=1;exitX=0.5;exitY=1;exitDx=0;exitDy=0;" edge="1" parent="1" source="8V_Fvuz6eneKWts8hAFH-21">
          <mxGeometry relative="1" as="geometry">
            <mxPoint x="360" y="530" as="targetPoint" />
            <Array as="points">
              <mxPoint x="360" y="480" />
              <mxPoint x="361" y="530" />
            </Array>
          </mxGeometry>
        </mxCell>
        <mxCell id="8V_Fvuz6eneKWts8hAFH-33" value="op2" style="edgeLabel;html=1;align=center;verticalAlign=middle;resizable=0;points=[];" vertex="1" connectable="0" parent="8V_Fvuz6eneKWts8hAFH-32">
          <mxGeometry x="0.5187" y="-1" relative="1" as="geometry">
            <mxPoint x="11" y="47" as="offset" />
          </mxGeometry>
        </mxCell>
        <mxCell id="8V_Fvuz6eneKWts8hAFH-21" value="opcion" style="rhombus;whiteSpace=wrap;html=1;" vertex="1" parent="1">
          <mxGeometry x="320" y="350" width="80" height="80" as="geometry" />
        </mxCell>
        <mxCell id="8V_Fvuz6eneKWts8hAFH-35" value="" style="edgeStyle=orthogonalEdgeStyle;rounded=0;orthogonalLoop=1;jettySize=auto;html=1;entryX=0.5;entryY=0;entryDx=0;entryDy=0;" edge="1" parent="1">
          <mxGeometry relative="1" as="geometry">
            <mxPoint x="345" y="485.0588235294117" as="sourcePoint" />
            <mxPoint x="130" y="600" as="targetPoint" />
          </mxGeometry>
        </mxCell>
        <mxCell id="8V_Fvuz6eneKWts8hAFH-38" value="" style="edgeStyle=orthogonalEdgeStyle;rounded=0;orthogonalLoop=1;jettySize=auto;html=1;" edge="1" parent="1">
          <mxGeometry relative="1" as="geometry">
            <mxPoint x="360" y="500" as="sourcePoint" />
            <mxPoint x="360.0588235294117" y="600" as="targetPoint" />
          </mxGeometry>
        </mxCell>
        <mxCell id="8V_Fvuz6eneKWts8hAFH-40" value="" style="edgeStyle=orthogonalEdgeStyle;rounded=0;orthogonalLoop=1;jettySize=auto;html=1;entryX=0.5;entryY=0;entryDx=0;entryDy=0;exitX=1.051;exitY=0.596;exitDx=0;exitDy=0;exitPerimeter=0;" edge="1" parent="1">
          <mxGeometry relative="1" as="geometry">
            <mxPoint x="376.5300000000002" y="487.8800000000001" as="sourcePoint" />
            <mxPoint x="600" y="600" as="targetPoint" />
          </mxGeometry>
        </mxCell>
        <mxCell id="8V_Fvuz6eneKWts8hAFH-41" value="" style="edgeStyle=orthogonalEdgeStyle;rounded=0;orthogonalLoop=1;jettySize=auto;html=1;" edge="1" parent="1">
          <mxGeometry relative="1" as="geometry">
            <mxPoint x="360" y="470" as="sourcePoint" />
            <mxPoint x="360.0588235294117" y="500" as="targetPoint" />
          </mxGeometry>
        </mxCell>
        <mxCell id="8V_Fvuz6eneKWts8hAFH-43" value="op1" style="text;html=1;align=center;verticalAlign=middle;resizable=0;points=[];autosize=1;strokeColor=none;fillColor=none;" vertex="1" parent="1">
          <mxGeometry x="130" y="548" width="40" height="30" as="geometry" />
        </mxCell>
        <mxCell id="8V_Fvuz6eneKWts8hAFH-44" value="op3" style="text;html=1;align=center;verticalAlign=middle;resizable=0;points=[];autosize=1;strokeColor=none;fillColor=none;" vertex="1" parent="1">
          <mxGeometry x="600" y="548" width="40" height="30" as="geometry" />
        </mxCell>
        <mxCell id="8V_Fvuz6eneKWts8hAFH-45" value="ESCRIBIR: metros a pulgadas" style="shape=parallelogram;perimeter=parallelogramPerimeter;whiteSpace=wrap;html=1;fixedSize=1;" vertex="1" parent="1">
          <mxGeometry x="530" y="600" width="120" height="60" as="geometry" />
        </mxCell>
        <mxCell id="8V_Fvuz6eneKWts8hAFH-46" value="ESCRIBIR: pies a pulgadas" style="shape=parallelogram;perimeter=parallelogramPerimeter;whiteSpace=wrap;html=1;fixedSize=1;" vertex="1" parent="1">
          <mxGeometry x="300" y="600" width="120" height="60" as="geometry" />
        </mxCell>
        <mxCell id="8V_Fvuz6eneKWts8hAFH-47" value="ESCRIBIR metros a pies" style="shape=parallelogram;perimeter=parallelogramPerimeter;whiteSpace=wrap;html=1;fixedSize=1;" vertex="1" parent="1">
          <mxGeometry x="70" y="600" width="120" height="60" as="geometry" />
        </mxCell>
        <mxCell id="8V_Fvuz6eneKWts8hAFH-48" value="pulgadas=metros*39.3701;" style="rounded=0;whiteSpace=wrap;html=1;" vertex="1" parent="1">
          <mxGeometry x="530" y="800" width="120" height="60" as="geometry" />
        </mxCell>
        <mxCell id="8V_Fvuz6eneKWts8hAFH-49" value="" style="rounded=0;whiteSpace=wrap;html=1;" vertex="1" parent="1">
          <mxGeometry x="293.5" y="800" width="120" height="60" as="geometry" />
        </mxCell>
        <mxCell id="8V_Fvuz6eneKWts8hAFH-50" value="" style="rounded=0;whiteSpace=wrap;html=1;" vertex="1" parent="1">
          <mxGeometry x="60" y="800" width="120" height="60" as="geometry" />
        </mxCell>
        <mxCell id="8V_Fvuz6eneKWts8hAFH-51" value="LEER:METROS" style="shape=parallelogram;perimeter=parallelogramPerimeter;whiteSpace=wrap;html=1;fixedSize=1;" vertex="1" parent="1">
          <mxGeometry x="530" y="690" width="120" height="60" as="geometry" />
        </mxCell>
        <mxCell id="8V_Fvuz6eneKWts8hAFH-52" value="LEER pies" style="shape=parallelogram;perimeter=parallelogramPerimeter;whiteSpace=wrap;html=1;fixedSize=1;" vertex="1" parent="1">
          <mxGeometry x="300" y="700" width="120" height="60" as="geometry" />
        </mxCell>
        <mxCell id="8V_Fvuz6eneKWts8hAFH-53" value="LEER metros" style="shape=parallelogram;perimeter=parallelogramPerimeter;whiteSpace=wrap;html=1;fixedSize=1;" vertex="1" parent="1">
          <mxGeometry x="70" y="700" width="120" height="60" as="geometry" />
        </mxCell>
      </root>
    </mxGraphModel>
  </diagram>
</mxfile>
